<?xml version="1.0" standalone="no"?><svg xmlns="http://www.w3.org/2000/svg" viewBox="0 0 1440 320"><path fill="#F3F4F6" fill-opacity="1" d="M0,192L40,202.7C80,213,160,235,240,229.3C320,224,400,192,480,176C560,160,640,160,720,160C800,160,880,160,960,181.3C1040,203,1120,245,1200,229.3C1280,213,1360,139,1400,101.3L1440,64L1440,320L1400,320C1360,320,1280,320,1200,320C1120,320,1040,320,960,320C880,320,800,320,720,320C640,320,560,320,480,320C400,320,320,320,240,320C160,320,80,320,40,320L0,320Z"></path></svg>