<?xml version="1.0" standalone="no"?><svg xmlns="http://www.w3.org/2000/svg" viewBox="0 0 1440 320"><path fill="#F3F4F6" fill-opacity="1" d="M0,288L30,282.7C60,277,120,267,180,240C240,213,300,171,360,138.7C420,107,480,85,540,112C600,139,660,213,720,234.7C780,256,840,224,900,218.7C960,213,1020,235,1080,245.3C1140,256,1200,256,1260,234.7C1320,213,1380,171,1410,149.3L1440,128L1440,0L1410,0C1380,0,1320,0,1260,0C1200,0,1140,0,1080,0C1020,0,960,0,900,0C840,0,780,0,720,0C660,0,600,0,540,0C480,0,420,0,360,0C300,0,240,0,180,0C120,0,60,0,30,0L0,0Z"></path></svg>